<?xml version="1.0" standalone="no"?>
<!DOCTYPE svg PUBLIC "-//W3C//DTD SVG 20010904//EN"
 "http://www.w3.org/TR/2001/REC-SVG-20010904/DTD/svg10.dtd">
<svg version="1.0" xmlns="http://www.w3.org/2000/svg"
 width="600.000000pt" height="407.000000pt" viewBox="0 0 600.000000 407.000000"
 preserveAspectRatio="xMidYMid meet">

<g transform="translate(0.000000,407.000000) scale(0.100000,-0.100000)"
fill="#000000" stroke="none">
<path d="M0 2990 c0 -953 2 -1080 15 -1080 8 0 15 -7 15 -15 0 -8 -7 -15 -15
-15 -13 0 -15 -111 -15 -940 l0 -940 3000 0 3000 0 0 1290 c0 1026 -3 1290
-12 1290 -7 -1 -38 -7 -68 -14 -81 -19 -123 -10 -118 26 4 30 38 45 126 59
l72 11 0 50 c0 55 3 53 -65 29 -16 -5 -50 -17 -75 -24 -75 -24 -236 -85 -269
-101 -48 -25 -79 -20 -119 20 -27 27 -42 35 -61 31 -125 -24 -143 -25 -171
-15 -25 8 -30 15 -30 42 0 37 43 86 76 86 11 0 24 4 29 9 6 5 37 18 70 29 33
11 87 34 120 51 36 18 85 33 120 37 33 4 85 13 115 20 63 16 226 19 235 4 19
-31 25 4 25 154 l0 164 -40 7 c-34 6 -40 11 -40 31 0 13 -6 24 -12 24 -7 0 -5
5 6 11 10 6 33 9 52 6 33 -6 34 -5 34 29 l0 35 -26 -20 c-15 -12 -37 -21 -50
-21 -12 0 -24 -5 -26 -11 -3 -8 -14 -7 -35 5 -47 24 -60 20 -66 -16 -7 -46 20
-93 53 -94 66 0 118 -51 101 -97 -14 -35 -96 -93 -175 -123 -39 -15 -82 -35
-96 -44 -14 -10 -70 -32 -125 -50 -55 -19 -122 -41 -150 -50 -52 -18 -123 -35
-210 -50 -27 -4 -75 -17 -105 -28 -100 -35 -158 -47 -187 -36 -35 12 -51 39
-37 62 11 18 129 82 152 82 7 0 20 4 30 10 9 5 42 16 72 25 30 8 66 24 79 36
l25 20 -30 25 c-22 20 -36 25 -61 20 -18 -2 -33 -2 -33 2 1 16 28 42 44 42 9
0 22 11 28 25 6 14 16 25 23 25 17 0 78 67 71 78 -3 6 -1 12 6 14 6 2 8 10 4
16 -11 18 -91 14 -206 -9 -98 -20 -105 -20 -156 -4 -41 13 -54 22 -54 36 0 12
-7 19 -19 19 -10 0 -29 8 -42 19 -20 16 -23 28 -23 74 1 31 7 70 14 87 12 29
15 30 71 30 33 0 59 -4 59 -10 0 -5 9 -10 20 -10 15 0 20 7 20 25 0 25 -1 25
-85 25 -85 0 -95 3 -215 59 -19 9 -41 22 -48 28 -11 11 -10 13 7 13 11 0 23 5
26 10 5 7 -53 10 -182 10 -198 -1 -614 13 -843 30 -106 8 -154 16 -224 40 -50
17 -92 34 -95 39 -4 4 -33 13 -66 19 -118 21 -155 34 -155 54 0 10 7 18 15 18
8 0 32 9 54 21 23 11 67 27 98 34 102 23 147 38 173 55 34 23 64 31 140 36 36
2 90 8 120 14 75 13 268 29 489 40 101 6 186 12 189 14 12 13 -61 18 -176 12
-70 -3 -170 -8 -222 -11 -61 -3 -88 -2 -75 4 12 6 -762 10 -1932 10 l-1953 1
0 -1080z m4410 610 c0 -5 -18 -10 -40 -10 -22 0 -40 5 -40 10 0 6 18 10 40 10
22 0 40 -4 40 -10z m-3370 -465 c118 -7 233 -18 255 -23 62 -15 152 -51 165
-67 7 -8 23 -15 35 -15 12 0 28 -7 35 -15 7 -8 19 -15 26 -15 8 0 14 -6 14
-14 0 -8 10 -16 22 -18 14 -2 22 -11 23 -27 2 -30 38 -61 43 -37 6 28 19 17
14 -12 -2 -18 -10 -28 -22 -29 -10 -1 -28 -11 -39 -22 -12 -12 -29 -21 -38
-22 -10 0 -27 -2 -38 -4 -11 -2 -70 -5 -132 -6 -95 -1 -115 -4 -132 -21 -22
-20 -27 -38 -11 -38 5 0 17 -16 26 -36 13 -28 29 -41 65 -56 27 -11 51 -28 54
-37 3 -9 19 -24 35 -33 17 -10 38 -31 47 -47 12 -19 47 -44 108 -76 107 -57
149 -85 176 -119 11 -14 29 -26 39 -26 10 0 37 -16 61 -36 58 -48 91 -64 136
-64 21 0 50 -7 66 -14 15 -8 27 -11 27 -6 0 4 -5 10 -11 12 -18 6 -1 45 23 51
48 13 80 -40 38 -63 -26 -14 -25 -26 4 -53 12 -12 29 -39 35 -59 14 -44 38
-50 47 -12 5 19 0 32 -21 54 -35 37 -28 60 20 60 44 0 83 -33 64 -56 -6 -8
-17 -14 -24 -14 -8 0 -10 -9 -7 -25 6 -32 52 -37 52 -5 0 26 29 26 80 0 39
-20 57 -60 26 -60 -22 0 -6 -52 23 -77 14 -13 29 -23 33 -23 3 0 9 -18 13 -41
8 -48 10 -47 19 9 6 38 4 43 -18 53 -19 9 -24 19 -24 50 -1 21 4 39 9 39 16 0
95 -49 111 -67 11 -15 10 -16 -9 -11 -30 8 -31 -25 -2 -46 12 -8 18 -19 15
-25 -4 -6 10 -18 31 -28 l38 -18 6 -90 c10 -135 10 -385 1 -385 -27 0 -152
103 -152 125 0 8 -6 12 -14 9 -21 -8 -90 30 -130 72 -20 21 -36 34 -36 30 0
-10 -81 47 -104 73 -11 11 -27 21 -36 21 -10 0 -29 9 -44 21 -14 11 -26 17
-26 13 0 -8 86 -85 111 -99 9 -5 44 -35 77 -65 34 -30 87 -75 118 -100 32 -25
65 -51 74 -58 42 -36 116 -93 215 -168 61 -45 119 -91 130 -101 11 -10 32 -24
48 -30 15 -7 65 -49 111 -93 46 -44 91 -80 101 -80 26 0 158 -138 184 -191 22
-46 22 -47 62 -42 36 5 44 2 75 -28 19 -18 52 -63 73 -99 33 -55 41 -79 50
-156 16 -133 14 -195 -8 -221 -11 -13 -24 -23 -30 -23 -6 0 -36 25 -67 55
l-57 55 -25 -27 c-51 -55 -159 -19 -268 88 -39 38 -93 76 -150 105 -49 26 -84
41 -78 33 6 -8 14 -31 17 -51 6 -41 -9 -58 -52 -58 -19 0 -118 94 -306 292
-34 34 -160 166 -280 293 -121 126 -229 239 -240 251 -11 12 -30 24 -42 28
-12 4 -24 15 -28 25 -5 18 -55 64 -260 241 -66 58 -122 107 -125 110 -3 3 -45
41 -95 85 -49 44 -115 103 -145 132 -30 28 -78 71 -107 95 -88 72 -171 192
-188 269 -4 16 -18 37 -32 47 -14 9 -42 32 -63 50 -20 17 -42 32 -48 32 -18 0
-56 42 -85 92 -15 26 -62 78 -105 115 -42 37 -104 99 -137 136 -67 77 -68 83
-40 207 8 36 17 81 20 100 9 56 47 123 84 147 41 28 94 29 421 8z m844 -221
c-5 -20 -2 -26 15 -31 16 -4 21 -13 21 -37 0 -18 -5 -37 -12 -44 -17 -17 -73
-15 -88 3 -7 8 -21 15 -30 15 -39 0 -50 11 -50 51 0 21 5 39 10 39 6 0 10 -4
10 -10 0 -12 47 -14 52 -2 6 15 61 52 69 46 5 -3 6 -16 3 -30z m259 -18 c29
-22 21 -61 -23 -107 -34 -36 -42 -40 -55 -29 -20 16 -14 48 21 108 27 46 31
48 57 28z m322 -30 c20 -9 49 -12 69 -9 53 8 103 -12 109 -46 14 -70 -65 -211
-117 -211 -12 0 -41 7 -65 16 -24 8 -50 13 -58 10 -17 -7 -88 39 -99 62 -4 9
-9 33 -11 52 -3 19 -9 37 -14 38 -31 11 12 66 45 58 14 -3 32 3 51 19 35 29
44 30 90 11z m-455 -4 c0 -12 -30 -72 -36 -72 -4 0 2 38 12 68 4 13 24 17 24
4z m844 -61 c14 -13 17 -26 14 -63 -3 -27 -2 -48 1 -48 4 0 17 18 31 40 14 23
35 43 46 46 68 17 97 -23 76 -104 -19 -71 -80 -190 -102 -197 -11 -3 -20 -17
-22 -33 -2 -21 -9 -28 -30 -30 -21 -3 -28 1 -29 15 -1 10 -3 25 -3 33 -2 22
-28 100 -34 100 -2 0 -15 -9 -29 -20 -55 -43 -113 -11 -113 61 0 53 53 160 98
200 36 32 60 32 96 0z m420 -120 c14 -16 16 -29 11 -63 -8 -47 -76 -202 -101
-229 -9 -10 -14 -32 -12 -60 3 -42 1 -44 -25 -47 -37 -4 -57 13 -57 49 0 16
-7 47 -16 69 -21 53 -15 82 41 173 70 116 121 150 159 108z m197 -21 c36 -20
25 -87 -37 -225 -47 -103 -55 -131 -50 -160 5 -27 2 -39 -14 -55 -24 -24 -32
-25 -69 -5 -38 19 -67 105 -57 167 13 80 155 288 197 288 6 0 19 -5 30 -10z
m219 -85 c21 -26 5 -94 -54 -227 -42 -94 -55 -134 -50 -153 4 -18 1 -32 -11
-45 -9 -10 -14 -24 -10 -29 4 -7 -3 -11 -17 -11 -28 0 -50 13 -46 28 2 6 -5
17 -15 24 -13 10 -18 33 -22 94 l-5 81 54 89 c94 154 140 193 176 149z m384
-185 c-2 -50 -92 -266 -120 -287 -8 -6 -15 -15 -15 -20 0 -4 -12 -7 -27 -6
-23 3 -22 1 8 -10 19 -6 35 -19 35 -27 0 -20 -86 -20 -110 0 -15 13 -15 15 5
30 19 15 20 18 6 23 -33 13 -19 73 40 174 73 124 119 175 153 171 24 -3 26 -7
25 -48z m296 -1 c15 -27 -3 -85 -70 -226 -33 -69 -54 -103 -65 -103 -15 0 -15
-1 -1 -16 18 -17 20 -32 7 -53 -8 -12 -16 -13 -48 -3 -21 6 -47 13 -58 15 -11
2 -19 7 -18 13 0 5 3 29 6 54 3 32 24 77 71 157 98 165 149 213 176 162z
m-2492 -68 c-14 -5 -27 19 -21 37 5 11 9 9 19 -9 8 -16 9 -25 2 -28z m166 -10
c35 -39 -9 -87 -53 -59 -36 22 -21 78 19 78 9 0 25 -9 34 -19z m3556 -41 c-73
-12 -637 -12 -645 -1 -4 7 109 10 342 9 191 0 328 -4 303 -8z m-712 -77 c2
-33 -9 -71 -54 -177 -31 -74 -62 -137 -68 -139 -14 -6 -127 21 -139 33 -15 13
145 275 190 310 42 33 67 23 71 -27z m822 -82 c53 -7 54 -7 20 -14 -83 -15
-404 -26 -416 -14 -3 2 -2 12 2 21 5 14 27 16 173 15 91 -1 191 -4 221 -8z
m-416 -67 c11 -10 14 -24 10 -42 -19 -79 -90 -266 -121 -317 -10 -18 -15 -18
-80 -6 -63 13 -103 33 -103 52 0 18 125 217 159 252 31 34 93 75 113 77 4 0
14 -7 22 -16z m-2684 -50 c0 -2 -9 0 -20 6 -11 6 -20 13 -20 16 0 2 9 0 20 -6
11 -6 20 -13 20 -16z m1323 -21 c-13 -2 -35 -2 -50 0 -16 2 -5 4 22 4 28 0 40
-2 28 -4z m265 -19 c60 -20 63 -39 6 -38 -62 1 -94 12 -94 33 0 22 10 33 24
27 6 -3 35 -13 64 -22z m-1435 -72 c34 -30 16 -34 -30 -6 -42 24 -46 24 -29 6
15 -17 16 -22 5 -23 -13 -1 -3 -7 18 -12 4 -1 28 -23 52 -50 43 -46 45 -47 56
-26 7 12 10 32 7 45 -5 29 5 30 55 7 47 -21 83 -52 83 -70 0 -17 -29 -10 -78
18 -38 22 -42 23 -42 9 0 -5 30 -29 66 -52 l67 -41 -5 -96 c-6 -106 0 -139 31
-170 23 -23 29 -71 9 -72 -10 0 -10 -2 0 -6 10 -4 10 -8 1 -19 -9 -11 -9 -14
0 -14 7 0 9 -4 6 -10 -3 -5 -1 -10 6 -10 9 0 10 -3 2 -11 -11 -11 -10 -16 21
-114 18 -55 21 -95 7 -95 -7 0 -101 67 -147 106 -31 25 -35 70 -33 308 2 212
0 241 -14 250 -9 6 -18 8 -20 6 -1 -3 0 -120 4 -260 4 -140 6 -257 4 -258 -3
-3 -87 55 -150 103 -19 15 -20 30 -23 268 l-3 252 -29 17 c-21 12 -27 22 -23
36 3 13 11 18 19 15 8 -3 11 -10 7 -16 -4 -6 -1 -7 7 -2 10 6 8 12 -8 26 -12
9 -22 20 -22 23 0 8 101 -42 123 -62z m-33 42 c0 -2 -9 0 -20 6 -11 6 -20 13
-20 16 0 2 9 0 20 -6 11 -6 20 -13 20 -16z m3024 -14 c-1 -19 -6 -51 -12 -70
-6 -19 -19 -66 -30 -105 -47 -162 -69 -200 -112 -191 -79 17 -137 32 -147 39
-17 11 -16 42 0 59 7 7 30 38 50 68 101 152 191 243 232 238 16 -2 20 -10 19
-38z m-1726 -27 c-38 -2 -98 -2 -135 0 -38 2 -7 3 67 3 74 0 105 -1 68 -3z
m626 1 c9 -3 16 -17 16 -30 0 -20 -5 -24 -28 -24 -26 0 -28 3 -24 30 4 31 9
34 36 24z m-414 -24 c0 -13 -90 -13 -110 0 -11 7 3 10 48 10 35 0 62 -4 62
-10z m510 -40 c0 -5 -4 -10 -9 -10 -6 0 -13 5 -16 10 -3 6 1 10 9 10 9 0 16
-4 16 -10z m-685 -47 c95 -7 97 -8 45 -14 -49 -5 -132 -5 -253 -1 -23 1 -36 6
-32 12 7 12 100 13 240 3z m643 -40 c23 -3 42 -11 42 -18 0 -20 -12 -25 -33
-13 -12 6 -39 11 -61 12 -31 1 -42 5 -44 19 -3 15 1 17 25 12 15 -4 47 -9 71
-12z m-1581 -49 c37 -21 43 -29 37 -47 -10 -33 -10 -33 -69 -4 -37 18 -55 33
-55 45 0 40 26 42 87 6z m1123 1 c12 -14 4 -15 -71 -9 -130 11 -148 22 -38 23
75 1 99 -2 109 -14z m430 -46 c0 -5 -11 -9 -25 -9 -28 0 -34 16 -7 23 20 4 32
-1 32 -14z m-520 -10 c106 -16 96 -29 -25 -31 -172 -4 -222 -1 -272 18 -44 17
-45 19 -23 26 30 9 230 1 320 -13z m-782 -70 c5 -38 -19 -62 -51 -54 -51 13
-60 77 -14 95 29 11 61 -10 65 -41z m-214 0 c41 -24 50 -55 14 -43 -13 3 -24
11 -26 15 -2 5 -8 9 -14 9 -21 0 8 -167 50 -280 3 -8 4 -18 4 -22 -1 -4 5 -40
13 -80 10 -48 31 -99 60 -150 25 -43 45 -80 45 -83 0 -3 -7 -5 -15 -5 -27 0
-90 37 -139 82 -48 43 -48 44 -57 123 -14 133 -11 306 7 384 9 39 18 71 20 71
1 0 19 -9 38 -21z m1150 -9 c8 -8 0 -10 -24 -9 -57 2 -90 10 -90 21 0 14 99 3
114 -12z m426 5 c22 -11 29 -21 26 -38 -3 -20 -8 -22 -72 -22 -82 0 -325 32
-338 45 -12 12 96 23 287 28 45 1 78 -3 97 -13z m-619 -49 c19 -8 47 -18 63
-21 49 -10 23 -15 -111 -22 -111 -5 -137 -3 -177 12 -86 33 -39 57 100 50 51
-2 107 -11 125 -19z m654 -43 c35 -11 102 -18 220 -22 l170 -6 0 -30 0 -30
-190 -1 c-192 -1 -396 9 -427 21 -21 8 -24 53 -4 61 7 3 51 9 97 13 46 5 84 9
84 10 0 0 23 -7 50 -16z m-470 -69 c76 -9 146 -19 155 -23 8 -5 44 -12 79 -15
36 -4 70 -14 75 -21 14 -17 75 -23 341 -31 153 -4 232 -11 290 -24 44 -11 107
-22 140 -25 33 -3 79 -11 103 -17 34 -9 42 -15 42 -34 0 -13 -1 -24 -2 -25 -2
0 -163 -3 -358 -6 -227 -3 -380 -1 -425 6 -38 6 -79 12 -90 13 -11 2 -23 11
-27 21 -4 9 -24 25 -45 34 -21 10 -46 24 -55 31 -14 12 -42 13 -140 8 -149 -7
-228 -16 -228 -26 0 -22 90 -45 230 -60 123 -12 195 -27 232 -47 47 -24 190
-34 513 -37 308 -3 342 -6 412 -30 85 -29 36 -61 -140 -92 -73 -13 -154 -24
-182 -24 -84 -1 -237 -26 -300 -49 -38 -13 -83 -21 -127 -21 -57 0 -71 4 -95
25 -24 21 -26 26 -13 35 8 5 27 10 43 10 15 0 27 5 27 10 0 6 9 10 20 10 11 0
20 5 20 10 0 17 107 12 114 -5 4 -11 21 -15 63 -15 l58 1 -31 28 c-24 22 -45
30 -95 35 -36 4 -72 15 -82 24 -16 14 -53 16 -290 17 -197 1 -282 5 -307 14
-91 34 -110 45 -111 65 -2 43 3 81 12 84 22 8 6 22 -26 22 -47 0 -202 77 -209
104 -11 40 18 48 149 41 66 -3 183 -13 260 -21z m-935 -13 c5 -11 10 -32 10
-48 0 -16 7 -39 16 -51 9 -14 17 -51 19 -100 9 -166 17 -238 30 -252 58 -69
110 -170 86 -170 -24 0 -131 73 -157 107 l-29 38 -3 248 c-2 241 2 276 28 228z
m370 -693 c17 -23 29 -49 27 -57 -4 -21 -46 -16 -64 7 -41 52 -46 62 -33 77
20 24 38 18 70 -27z m-795 -278 c3 -5 2 -10 -4 -10 -5 0 -13 5 -16 10 -3 6 -2
10 4 10 5 0 13 -4 16 -10z"/>
<path d="M1090 2259 c0 -7 21 -35 48 -63 26 -29 83 -92 127 -141 44 -49 118
-130 165 -180 47 -49 133 -142 190 -205 237 -262 493 -524 595 -608 44 -37 98
-83 120 -104 22 -20 56 -49 76 -65 36 -28 131 -114 287 -256 46 -42 90 -77 97
-77 7 0 16 -6 18 -12 3 -7 6 -8 6 -2 1 5 -7 19 -17 30 -9 10 -25 32 -35 47
-10 15 -36 40 -57 55 -21 15 -41 37 -44 50 -4 12 -69 84 -145 160 -76 76 -142
149 -146 163 -4 13 -25 41 -46 61 -22 20 -39 41 -39 47 0 6 -7 11 -15 11 -9 0
-20 11 -25 25 -5 14 -12 25 -15 25 -4 0 -3 -5 0 -10 3 -5 1 -10 -5 -10 -6 0
-14 10 -19 23 -9 23 -97 94 -112 90 -5 -2 -9 6 -9 17 0 11 -4 20 -9 20 -5 0
-15 16 -22 35 -9 23 -19 35 -32 35 -41 0 -92 41 -103 84 -3 14 -14 28 -24 31
-17 5 -100 141 -100 164 0 9 -35 44 -134 135 -21 19 -72 56 -112 82 -41 26
-74 51 -74 55 0 17 -65 70 -92 76 -29 6 -54 28 -60 53 -2 8 -6 19 -11 25 -4 5
-17 23 -28 38 -12 15 -51 43 -88 61 -84 43 -111 51 -111 35z"/>
<path d="M2360 2050 c0 -6 7 -10 15 -10 8 0 15 2 15 4 0 2 -7 6 -15 10 -8 3
-15 1 -15 -4z"/>
<path d="M2331 2006 c-8 -10 -8 -16 3 -25 11 -9 15 -8 20 5 13 34 -1 47 -23
20z"/>
<path d="M1970 1855 c13 -14 26 -23 28 -20 7 7 -29 45 -41 45 -6 0 0 -11 13
-25z"/>
<path d="M2094 1761 c20 -22 26 -25 26 -13 0 4 -10 13 -22 21 -23 14 -23 14
-4 -8z"/>
<path d="M2166 1289 c3 -5 14 -14 24 -19 16 -8 18 -7 14 4 -3 8 -14 16 -25 19
-10 3 -17 1 -13 -4z"/>
<path d="M2225 1240 c3 -5 8 -10 11 -10 2 0 4 5 4 10 0 6 -5 10 -11 10 -5 0
-7 -4 -4 -10z"/>
<path d="M2770 1686 c0 -14 5 -28 10 -31 6 -4 10 7 10 24 0 17 -4 31 -10 31
-5 0 -10 -11 -10 -24z"/>
<path d="M2911 1655 l1 -50 14 34 c14 30 14 36 0 50 -15 14 -16 11 -15 -34z"/>
<path d="M4635 1860 c-3 -5 -1 -10 4 -10 6 0 11 5 11 10 0 6 -2 10 -4 10 -3 0
-8 -4 -11 -10z"/>
<path d="M4648 4063 c23 -2 61 -2 85 0 23 2 4 4 -43 4 -47 0 -66 -2 -42 -4z"/>
<path d="M5913 4063 c9 -2 25 -2 35 0 9 3 1 5 -18 5 -19 0 -27 -2 -17 -5z"/>
<path d="M5890 3661 l-45 -6 49 -8 c76 -11 106 -9 106 8 0 16 -26 17 -110 6z"/>
<path d="M5923 3583 c-7 -2 -13 -11 -13 -18 0 -15 -53 -30 -69 -20 -10 5 -31
-24 -31 -43 0 -5 10 -12 21 -15 17 -5 20 -11 15 -29 -20 -71 -22 -66 26 -57
24 4 62 8 86 9 30 0 42 4 42 15 0 8 -9 15 -20 15 -11 0 -20 3 -20 8 0 22 22
82 30 82 6 0 10 14 10 30 0 27 -3 30 -32 29 -18 0 -39 -3 -45 -6z"/>
<path d="M5005 3500 c-3 -5 -1 -10 4 -10 6 0 11 5 11 10 0 6 -2 10 -4 10 -3 0
-8 -4 -11 -10z"/>
</g>
</svg>
